<svg width="28" height="26" viewBox="0 0 28 26" fill="none" xmlns="http://www.w3.org/2000/svg">
<path d="M22.3794 20.6363C22.872 20.5739 23.3716 20.6731 23.8029 20.9191C24.2343 21.1652 24.574 21.5446 24.7711 22.0004C25.0123 22.5573 25.0224 23.1872 24.7992 23.7515C24.5759 24.3158 24.1377 24.7683 23.5808 25.0095C23.3049 25.1295 23.0079 25.1939 22.7071 25.199C22.4062 25.2041 22.1073 25.1498 21.8275 25.0392C21.5476 24.9287 21.2923 24.764 21.0762 24.5547C20.8601 24.3453 20.6874 24.0954 20.5679 23.8192C20.4345 23.5142 20.3696 23.1836 20.3779 22.8508C20.3862 22.518 20.4675 22.1911 20.616 21.8932M10.7087 21.9006H20.6308M12.8528 18.9543C12.5253 18.526 12.105 18.1775 11.6236 17.9349C11.1421 17.6922 10.612 17.5617 10.0729 17.5532C7.98423 17.5532 6.28743 19.4977 6.28743 21.8969V22.1335H8.50547M26.6491 22.3664C26.6481 21.3111 26.2282 20.2993 25.4816 19.5535C24.7351 18.8076 23.723 18.3887 22.6677 18.3887M12.8898 22.1335C12.9626 22.3643 13 22.6049 13.0007 22.8469C13.0007 23.4542 12.7597 24.0366 12.3307 24.4663C11.9017 24.896 11.3197 25.1379 10.7124 25.1389C10.1046 25.1389 9.52158 24.8974 9.09175 24.4676C8.66192 24.0378 8.42046 23.4548 8.42046 22.8469C8.42063 22.6045 8.45931 22.3637 8.53505 22.1335M24.1242 18.6647L22.1428 11.2835C22.1428 11.2835 23.9615 11.2429 23.4514 8.73648M7.03048 19.3461V15.4054C7.02754 15.2429 7.0567 15.0815 7.11628 14.9303C7.17586 14.7792 7.26469 14.6412 7.37768 14.5245C7.49067 14.4077 7.62559 14.3144 7.77472 14.2499C7.92385 14.1854 8.08423 14.1509 8.2467 14.1485H11.2263C11.4647 14.1456 11.7007 14.1962 11.917 14.2967C12.1332 14.3971 12.3242 14.5448 12.4758 14.7289C12.8898 15.2427 15.459 19.043 15.459 19.043H19.0818C19.2694 19.04 19.4545 18.9987 19.6256 18.9217C19.7967 18.8447 19.9502 18.7335 20.0769 18.5951C20.2036 18.4567 20.3006 18.2939 20.3622 18.1166C20.4237 17.9394 20.4485 17.7514 20.4349 17.5643L19.5218 10.1708C19.5088 10.0566 19.52 9.94102 19.5547 9.83149C19.5894 9.72195 19.6469 9.62098 19.7233 9.53515C19.7997 9.44933 19.8934 9.38059 19.9981 9.33342C20.1029 9.28625 20.2164 9.26171 20.3313 9.26141H21.0707M19.2889 7.62376H18.2797M16.4793 19.043V15.4608C16.4793 14.5294 16.1093 13.6362 15.4507 12.9776C14.7921 12.3189 13.8989 11.9489 12.9674 11.9489H9.58492M5.69226 25.2018H10.7087M15.9766 25.2018H22.3867M4.20986 19.8452H6.53142M0.649902 16.3185H3.99176M16.3056 4.45195C16.0239 4.71458 15.6786 4.89932 15.3038 4.98798C14.7365 5.11604 14.1416 5.01615 13.6472 4.70984C13.1528 4.40354 12.7985 3.91531 12.6606 3.35032C12.5324 2.78353 12.6318 2.18907 12.9374 1.69478C13.2429 1.20049 13.7303 0.845865 14.2946 0.707153C14.5834 0.640303 14.8827 0.632028 15.1748 0.682824C15.4668 0.73362 15.7458 0.842457 15.9951 1.00289C16.2796 1.1776 16.5149 1.42186 16.6789 1.71267C16.8231 1.98992 16.8823 2.33372 17.1374 2.53704C17.5477 2.86605 18.1576 2.67012 18.5754 2.4631M15.5034 9.59782L14.2909 12.2114M19.0116 7.60897H18.1503C17.9055 7.60941 17.6667 7.53293 17.4677 7.39031C17.2687 7.24769 17.1195 7.04616 17.0413 6.81417C16.8785 6.44151 16.6364 6.10885 16.3319 5.83941C16.0273 5.56997 15.6676 5.37023 15.2779 5.25415C14.2478 4.84424 13.1027 4.82844 12.0617 5.20978C11.2138 5.54716 10.5077 6.16583 10.0618 6.96204C9.73703 7.54669 9.56654 8.20445 9.56644 8.87325V11.9379H12.8528M14.5053 7.60897C14.5053 7.60897 15.0413 11.4868 19.5144 10.2632M17.0708 2.48159C17.0708 2.48159 14.7567 3.17657 12.8196 1.8938M5.5296 7.8049H8.75316C8.97376 7.8049 9.18532 7.89253 9.34131 8.04851C9.49729 8.2045 9.58493 8.41606 9.58493 8.63666V13.3167C9.58493 13.5373 9.49729 13.7489 9.34131 13.9049C9.18532 14.0609 8.97376 14.1485 8.75316 14.1485H3.1526C2.932 14.1485 2.72043 14.0609 2.56445 13.9049C2.40846 13.7489 2.32083 13.5373 2.32083 13.3167V11.0026C2.32376 10.1535 2.66312 9.34016 3.26457 8.7408C3.86601 8.14143 4.6805 7.80489 5.5296 7.8049Z" stroke="#E95322" stroke-width="1.29996" stroke-linecap="round" stroke-linejoin="round"/>
</svg>
