<svg width="22" height="28" viewBox="0 0 22 28" fill="none" xmlns="http://www.w3.org/2000/svg">
<path d="M15.9468 12.7031C15.7727 14.935 15.1372 17.5395 14.7041 19.7474C14.4329 21.1699 14.016 22.6004 14.1536 24.0429C14.2548 25.1528 14.8175 26.6354 16.6714 26.6474C17.1597 26.6639 17.6432 26.546 18.0679 26.3068C18.4885 26.0132 18.8 25.5908 18.9544 25.1047C19.1834 24.4336 19.2662 23.7221 19.1973 23.0171C19.0774 21.9181 18.8895 20.8275 18.6346 19.7514C18.2298 17.5435 17.566 14.9229 17.3919 12.691M4.17562 13.236C4.00561 15.4118 3.36605 17.7679 2.96126 19.9237C2.6941 21.3101 2.28525 22.7005 2.41883 24.107C2.52003 25.1889 3.07053 26.6354 4.88803 26.6474C5.36779 26.6652 5.84305 26.55 6.26026 26.3148C6.67349 26.0295 6.97955 25.6166 7.13056 25.1408C7.35601 24.4869 7.43743 23.7929 7.36937 23.1052C7.25255 22.0342 7.06733 20.9715 6.81482 19.9237C6.41003 17.7679 5.76642 15.4118 5.60046 13.236M0.649902 1.57163V9.10479C0.653101 10.2158 1.10008 11.2804 1.89332 12.0664C2.68655 12.8524 3.76165 13.2959 4.88399 13.3001C6.00702 13.2969 7.08314 12.8539 7.87725 12.0678C8.67136 11.2817 9.11889 10.2165 9.1221 9.10479V1.57163M3.46722 1.57163V6.89293M6.3574 1.57163V6.89293M21.0107 6.7086C21.0107 10.0547 19.0679 12.7672 16.6714 12.7672C14.2748 12.7672 12.3321 10.0547 12.3321 6.7086C12.3321 3.36254 14.2748 0.650024 16.6714 0.650024C19.0679 0.650024 21.0107 3.36254 21.0107 6.7086Z" stroke="#E95322" stroke-width="1.29996" stroke-linecap="round" stroke-linejoin="round"/>
</svg>
