<svg width="28" height="20" viewBox="0 0 28 20" fill="none" xmlns="http://www.w3.org/2000/svg">
<path d="M1 14.3794V14.8113C1.001 15.8676 1.42129 16.8804 2.16857 17.627C2.91584 18.3735 3.929 18.7929 4.98531 18.7929H23.0148C24.0711 18.7929 25.0842 18.3735 25.8314 17.627C26.5787 16.8804 26.999 15.8676 27 14.8113V4.98531C27 4.46195 26.8969 3.94371 26.6966 3.4602C26.4964 2.97668 26.2028 2.53735 25.8327 2.16728C25.4626 1.79722 25.0233 1.50363 24.5398 1.30335C24.0563 1.10307 23.5381 1 23.0148 1H4.98531C4.46195 1 3.94371 1.10307 3.4602 1.30335C2.97668 1.50363 2.53735 1.79722 2.16728 2.16728C1.79722 2.53735 1.50363 2.97668 1.30335 3.4602C1.10307 3.94371 1 4.46195 1 4.98531V14.3305M1.00751 5.29329H26.9887M4.65473 10.1124H6.81075M4.65473 13.8423H9.86825M16.6594 13.8423H18.7966M21.4785 13.8423H23.6157" stroke="#E95322" stroke-width="2" stroke-linecap="round" stroke-linejoin="round"/>
</svg>
