<svg width="69" height="64" viewBox="0 0 69 64" fill="none" xmlns="http://www.w3.org/2000/svg">
<path d="M13.7159 2.5V15.09M26.2459 2.5V15.09M41.8959 2.5V15.09M54.4259 2.5V15.09M10.6959 26.33H57.4459M32.6759 6.89005C25.7959 6.89005 18.3356 7.66993 12.3556 11.0199C4.6656 15.3399 2.77579 24.2601 2.55579 31.9101C2.32579 39.7801 2.47583 49.7199 9.84583 55.0199C16.4358 59.7499 25.7058 60.82 33.8458 60.84C46.2358 60.84 62.1658 58.4501 64.5758 45.1701C66.0458 37.1101 66.8058 24.2399 61.8458 17.0199C57.4158 10.5899 48.5157 8.01996 40.7057 7.29996C38.2257 7.08996 35.5059 6.89005 32.6759 6.89005Z" stroke="#E95322" stroke-width="5" stroke-linecap="round" stroke-linejoin="round"/>
</svg>
